<svg width="13" height="15" viewBox="0 0 13 15" fill="none" xmlns="http://www.w3.org/2000/svg">
  <path d="M12.75 14.375L9.46877 11.25L9.86251 12.5H1.81252C1.39811 12.5 1.00069 12.3354 0.707661 12.0424C0.414635 11.7493 0.250015 11.3519 0.250015 10.9375V1.5625C0.250015 1.1481 0.414635 0.750671 0.707661 0.457646C1.00069 0.16462 1.39811 0 1.81252 0H11.1875C11.6019 0 11.9993 0.16462 12.2924 0.457646C12.5854 0.750671 12.75 1.1481 12.75 1.5625V14.375ZM6.50002 3.625C4.82502 3.625 3.65002 4.34375 3.65002 4.34375C4.29377 3.76875 5.41877 3.4375 5.41877 3.4375L5.31252 3.33125C4.25627 3.35 3.30002 4.08125 3.30002 4.08125C2.22502 6.325 2.29377 8.2625 2.29377 8.2625C3.16877 9.39375 4.46877 9.3125 4.46877 9.3125L4.91252 8.75C4.13127 8.58125 3.63752 7.8875 3.63752 7.8875C3.63752 7.8875 4.81252 8.6875 6.50002 8.6875C8.18752 8.6875 9.36252 7.8875 9.36252 7.8875C9.36252 7.8875 8.86876 8.58125 8.08752 8.75L8.53127 9.3125C8.53127 9.3125 9.83127 9.39375 10.7063 8.2625C10.7063 8.2625 10.775 6.325 9.70002 4.08125C9.70002 4.08125 8.74376 3.35 7.68752 3.33125L7.58126 3.4375C7.58126 3.4375 8.70626 3.76875 9.35001 4.34375C9.35001 4.34375 8.17502 3.625 6.50002 3.625ZM5.20627 5.99375C5.61252 5.99375 5.94377 6.35 5.93752 6.7875C5.93752 7.21875 5.61252 7.58125 5.20627 7.58125C4.80627 7.58125 4.48127 7.21875 4.48127 6.7875C4.48127 6.35 4.80002 5.99375 5.20627 5.99375ZM7.81252 5.99375C8.21877 5.99375 8.54377 6.35 8.54377 6.7875C8.54377 7.21875 8.21877 7.58125 7.81252 7.58125C7.41252 7.58125 7.08751 7.21875 7.08751 6.7875C7.08751 6.35 7.40627 5.99375 7.81252 5.99375Z" fill="white" />
</svg>