<svg width="13" height="13" viewBox="0 0 13 13" fill="none" xmlns="http://www.w3.org/2000/svg">
  <path d="M6.50002 0.625C5.67925 0.625 4.86653 0.786661 4.10824 1.10075C3.34996 1.41484 2.66096 1.87522 2.0806 2.45558C0.908495 3.62769 0.250015 5.2174 0.250015 6.875C0.250015 9.6375 2.04377 11.9813 4.52502 12.8125C4.83752 12.8625 4.93752 12.6688 4.93752 12.5V11.4438C3.20627 11.8188 2.83752 10.6063 2.83752 10.6063C2.55002 9.88125 2.14377 9.6875 2.14377 9.6875C1.57502 9.3 2.18752 9.3125 2.18752 9.3125C2.81252 9.35625 3.14377 9.95625 3.14377 9.95625C3.68752 10.9063 4.60627 10.625 4.96252 10.475C5.01877 10.0688 5.18127 9.79375 5.35627 9.6375C3.96877 9.48125 2.51252 8.94375 2.51252 6.5625C2.51252 5.86875 2.75002 5.3125 3.15627 4.86875C3.09377 4.7125 2.87502 4.0625 3.21877 3.21875C3.21877 3.21875 3.74377 3.05 4.93752 3.85625C5.43127 3.71875 5.96877 3.65 6.50002 3.65C7.03127 3.65 7.56877 3.71875 8.06252 3.85625C9.25627 3.05 9.78127 3.21875 9.78127 3.21875C10.125 4.0625 9.90627 4.7125 9.84377 4.86875C10.25 5.3125 10.4875 5.86875 10.4875 6.5625C10.4875 8.95 9.02502 9.475 7.63127 9.63125C7.85627 9.825 8.06252 10.2063 8.06252 10.7875V12.5C8.06252 12.6688 8.16252 12.8688 8.48127 12.8125C10.9625 11.975 12.75 9.6375 12.75 6.875C12.75 6.05424 12.5884 5.24151 12.2743 4.48323C11.9602 3.72494 11.4998 3.03595 10.9194 2.45558C10.3391 1.87522 9.65007 1.41484 8.89179 1.10075C8.1335 0.786661 7.32078 0.625 6.50002 0.625Z" fill="white" />
</svg>