<svg width="22" height="20" viewBox="0 0 22 20" fill="none" xmlns="http://www.w3.org/2000/svg">
  <path fill-rule="evenodd" clip-rule="evenodd" d="M5.86843 0.25C5.86843 0.25 6.09494 2.36418 6.97722 3.24647C7.85951 4.12875 9.97369 4.35526 9.97369 4.35526C9.97369 4.35526 7.85951 4.58177 6.97722 5.46406C6.09494 6.34634 5.86843 8.46053 5.86843 8.46053C5.86843 8.46053 5.64192 6.34634 4.75963 5.46406C3.87735 4.58177 1.76316 4.35526 1.76316 4.35526C1.76316 4.35526 3.87735 4.12875 4.75963 3.24647C5.64192 2.36418 5.86843 0.25 5.86843 0.25ZM15.1053 3.32895C15.1053 3.32895 15.445 6.50023 16.7685 7.82366C18.0919 9.14708 21.2632 9.48685 21.2632 9.48685C21.2632 9.48685 18.0919 9.82661 16.7685 11.15C15.445 12.4735 15.1053 15.6447 15.1053 15.6447C15.1053 15.6447 14.7655 12.4735 13.4421 11.15C12.1187 9.82661 8.94738 9.48685 8.94738 9.48685C8.94738 9.48685 12.1187 9.14708 13.4421 7.82366C14.7655 6.50023 15.1053 3.32895 15.1053 3.32895ZM7.25442 13.2324C6.15156 12.1296 5.86843 9.48685 5.86843 9.48685C5.86843 9.48685 5.58529 12.1296 4.48243 13.2324C3.37958 14.3353 0.736847 14.6184 0.736847 14.6184C0.736847 14.6184 3.37958 14.9016 4.48243 16.0044C5.58529 17.1073 5.86843 19.75 5.86843 19.75C5.86843 19.75 6.15156 17.1073 7.25442 16.0044C8.35727 14.9016 11 14.6184 11 14.6184C11 14.6184 8.35727 14.3353 7.25442 13.2324Z" fill="url(#paint0_linear_2013_22)" />
  <defs>
    <linearGradient id="paint0_linear_2013_22" x1="2.12539" y1="1.78947" x2="22.402" y2="3.66324" gradientUnits="userSpaceOnUse">
      <stop offset="0.0695937" stop-color="#4467FF" />
      <stop offset="0.816425" stop-color="#7241FF" />
    </linearGradient>
  </defs>
</svg>