<svg width="270" height="257" viewBox="0 0 270 257" fill="none" xmlns="http://www.w3.org/2000/svg">
  <g opacity="0.1">
    <mask id="path-1-inside-1_7_134" fill="white">
      <path fill-rule="evenodd" clip-rule="evenodd" d="M68.0526 0.5C68.0526 0.5 71.0234 28.2283 82.5949 39.7999C94.1664 51.3714 121.895 54.3421 121.895 54.3421C121.895 54.3421 94.1664 57.3129 82.5949 68.8844C71.0234 80.4559 68.0526 108.184 68.0526 108.184C68.0526 108.184 65.0819 80.4559 53.5104 68.8844C41.9389 57.3129 14.2105 54.3421 14.2105 54.3421C14.2105 54.3421 41.9389 51.3714 53.5104 39.7999C65.0819 28.2283 68.0526 0.5 68.0526 0.5ZM189.197 40.8817C189.197 40.8817 193.653 82.4742 211.01 99.8315C228.367 117.189 269.96 121.645 269.96 121.645C269.96 121.645 228.367 126.101 211.01 143.458C193.653 160.816 189.197 202.408 189.197 202.408C189.197 202.408 184.741 160.816 167.383 143.458C150.026 126.101 108.434 121.645 108.434 121.645C108.434 121.645 150.026 117.189 167.383 99.8315C184.741 82.4742 189.197 40.8817 189.197 40.8817ZM86.2304 170.77C71.7661 156.305 68.0526 121.645 68.0526 121.645C68.0526 121.645 64.3392 156.305 49.8748 170.77C35.4104 185.234 0.75 188.947 0.75 188.947C0.75 188.947 35.4104 192.661 49.8748 207.125C64.3392 221.59 68.0526 256.25 68.0526 256.25C68.0526 256.25 71.7661 221.59 86.2304 207.125C100.695 192.661 135.355 188.947 135.355 188.947C135.355 188.947 100.695 185.234 86.2304 170.77Z" />
    </mask>
    <path d="M82.5949 39.7999L81.5342 40.8605L81.5342 40.8605L82.5949 39.7999ZM68.0526 0.5L69.5441 0.340208L66.5612 0.340208L68.0526 0.5ZM121.895 54.3421L122.055 55.8336L122.055 52.8506L121.895 54.3421ZM82.5949 68.8844L81.5342 67.8237L81.5342 67.8237L82.5949 68.8844ZM68.0526 108.184L66.5612 108.344L69.5441 108.344L68.0526 108.184ZM53.5104 68.8844L54.571 67.8237L54.571 67.8237L53.5104 68.8844ZM14.2105 54.3421L14.0507 52.8506L14.0507 55.8336L14.2105 54.3421ZM53.5104 39.7999L52.4497 38.7392L52.4497 38.7392L53.5104 39.7999ZM211.01 99.8315L212.071 98.7708L212.071 98.7708L211.01 99.8315ZM189.197 40.8817L190.688 40.7219L187.705 40.7219L189.197 40.8817ZM269.96 121.645L270.12 123.136V120.153L269.96 121.645ZM211.01 143.458L212.071 144.519L212.071 144.519L211.01 143.458ZM189.197 202.408L187.705 202.568L190.688 202.568L189.197 202.408ZM167.383 143.458L168.444 142.398L168.444 142.398L167.383 143.458ZM108.434 121.645L108.274 120.153L108.274 123.136L108.434 121.645ZM167.383 99.8315L168.444 100.892L168.444 100.892L167.383 99.8315ZM68.0526 121.645L69.5441 121.485L66.5612 121.485L68.0526 121.645ZM86.2304 170.77L85.1698 171.83L85.1698 171.83L86.2304 170.77ZM49.8748 170.77L50.9355 171.83L50.9355 171.83L49.8748 170.77ZM0.75 188.947L0.590208 187.456V190.439L0.75 188.947ZM49.8748 207.125L48.8141 208.186L48.8141 208.186L49.8748 207.125ZM68.0526 256.25L66.5612 256.41L69.5441 256.41L68.0526 256.25ZM86.2304 207.125L87.2911 208.186L87.2911 208.186L86.2304 207.125ZM135.355 188.947L135.515 190.439L135.515 187.456L135.355 188.947ZM83.6555 38.7392C78.1746 33.2583 74.6172 23.7808 72.4357 15.4314C71.3556 11.2975 70.6315 7.51657 70.1776 4.76887C69.9507 3.39594 69.7918 2.28329 69.6898 1.51632C69.6388 1.13289 69.6021 0.836027 69.5782 0.636409C69.5663 0.536605 69.5576 0.461127 69.552 0.41131C69.5492 0.386403 69.5471 0.367912 69.5458 0.356005C69.5452 0.350052 69.5447 0.345745 69.5444 0.343105C69.5443 0.341785 69.5442 0.340882 69.5441 0.340398C69.5441 0.340156 69.5441 0.340109 69.5441 0.339988C69.5441 0.340045 69.5441 0.340208 68.0526 0.5C66.5612 0.659792 66.5612 0.660166 66.5613 0.660646C66.5613 0.660947 66.5614 0.661533 66.5614 0.662135C66.5615 0.663338 66.5617 0.664963 66.5619 0.667007C66.5624 0.671095 66.563 0.676859 66.5638 0.684277C66.5655 0.699115 66.5678 0.720572 66.571 0.748482C66.5773 0.804301 66.5867 0.885936 66.5994 0.992046C66.6247 1.20425 66.6631 1.51442 66.716 1.91179C66.8216 2.70641 66.9852 3.85044 67.2177 5.25785C67.6824 8.07082 68.4241 11.9452 69.5332 16.1898C71.7299 24.5975 75.4436 34.7699 81.5342 40.8605L83.6555 38.7392ZM121.895 54.3421C122.055 52.8506 122.055 52.8507 122.055 52.8507C122.055 52.8507 122.055 52.8506 122.054 52.8506C122.054 52.8506 122.053 52.8505 122.052 52.8503C122.049 52.85 122.045 52.8496 122.039 52.8489C122.027 52.8476 122.008 52.8456 121.983 52.8427C121.934 52.8371 121.858 52.8284 121.758 52.8165C121.559 52.7927 121.262 52.7559 120.878 52.7049C120.111 52.603 118.999 52.444 117.626 52.2172C114.878 51.7633 111.097 51.0391 106.963 49.959C98.614 47.7775 89.1364 44.2201 83.6555 38.7392L81.5342 40.8605C87.6248 46.9511 97.7972 50.6648 106.205 52.8616C110.45 53.9706 114.324 54.7124 117.137 55.1771C118.544 55.4096 119.688 55.5731 120.483 55.6788C120.88 55.7316 121.19 55.77 121.403 55.7953C121.509 55.808 121.59 55.8174 121.646 55.8237C121.674 55.8269 121.696 55.8293 121.71 55.8309C121.718 55.8317 121.724 55.8323 121.728 55.8328C121.73 55.833 121.731 55.8332 121.733 55.8333C121.733 55.8334 121.734 55.8334 121.734 55.8335C121.735 55.8335 121.735 55.8336 121.895 54.3421ZM83.6555 69.945C89.1364 64.4641 98.614 60.9067 106.963 58.7252C111.097 57.6451 114.878 56.921 117.626 56.467C118.999 56.2402 120.111 56.0813 120.878 55.9793C121.262 55.9283 121.559 55.8915 121.758 55.8677C121.858 55.8558 121.934 55.8471 121.983 55.8415C122.008 55.8387 122.027 55.8366 122.039 55.8353C122.045 55.8346 122.049 55.8342 122.052 55.8339C122.053 55.8337 122.054 55.8336 122.054 55.8336C122.055 55.8336 122.055 55.8336 122.055 55.8335C122.055 55.8336 122.055 55.8336 121.895 54.3421C121.735 52.8506 121.735 52.8507 121.734 52.8507C121.734 52.8508 121.733 52.8508 121.733 52.8509C121.731 52.851 121.73 52.8512 121.728 52.8514C121.724 52.8519 121.718 52.8525 121.71 52.8533C121.696 52.8549 121.674 52.8573 121.646 52.8605C121.59 52.8668 121.509 52.8762 121.403 52.8889C121.19 52.9142 120.88 52.9526 120.483 53.0054C119.688 53.1111 118.544 53.2746 117.137 53.5071C114.324 53.9719 110.45 54.7136 106.205 55.8226C97.7972 58.0194 87.6248 61.7331 81.5342 67.8237L83.6555 69.945ZM68.0526 108.184C69.5441 108.344 69.5441 108.344 69.5441 108.344C69.5441 108.344 69.5441 108.344 69.5441 108.344C69.5442 108.343 69.5443 108.342 69.5444 108.341C69.5447 108.338 69.5452 108.334 69.5458 108.328C69.5471 108.316 69.5492 108.298 69.552 108.273C69.5576 108.223 69.5663 108.148 69.5782 108.048C69.6021 107.848 69.6388 107.551 69.6898 107.168C69.7918 106.401 69.9507 105.288 70.1776 103.915C70.6315 101.168 71.3556 97.3867 72.4357 93.2528C74.6172 84.9034 78.1746 75.4259 83.6555 69.945L81.5342 67.8237C75.4436 73.9143 71.7299 84.0867 69.5332 92.4944C68.4241 96.739 67.6824 100.613 67.2177 103.426C66.9852 104.834 66.8216 105.978 66.716 106.772C66.6631 107.17 66.6247 107.48 66.5994 107.692C66.5867 107.798 66.5773 107.88 66.571 107.936C66.5678 107.964 66.5655 107.985 66.5638 108C66.563 108.007 66.5624 108.013 66.5619 108.017C66.5617 108.019 66.5615 108.021 66.5614 108.022C66.5614 108.023 66.5613 108.023 66.5613 108.024C66.5612 108.024 66.5612 108.024 68.0526 108.184ZM52.4497 69.945C57.9306 75.4259 61.488 84.9034 63.6695 93.2528C64.7496 97.3867 65.4738 101.168 65.9277 103.915C66.1545 105.288 66.3135 106.401 66.4155 107.168C66.4665 107.551 66.5032 107.848 66.527 108.048C66.5389 108.148 66.5476 108.223 66.5533 108.273C66.5561 108.298 66.5581 108.316 66.5594 108.328C66.5601 108.334 66.5606 108.338 66.5608 108.341C66.561 108.342 66.5611 108.343 66.5611 108.344C66.5612 108.344 66.5612 108.344 66.5612 108.344C66.5612 108.344 66.5612 108.344 68.0526 108.184C69.5441 108.024 69.5441 108.024 69.544 108.024C69.544 108.023 69.5439 108.023 69.5438 108.022C69.5437 108.021 69.5435 108.019 69.5433 108.017C69.5429 108.013 69.5422 108.007 69.5414 108C69.5398 107.985 69.5374 107.964 69.5342 107.936C69.5279 107.88 69.5185 107.798 69.5059 107.692C69.4805 107.48 69.4421 107.17 69.3893 106.772C69.2836 105.978 69.1201 104.834 68.8876 103.426C68.4229 100.613 67.6811 96.739 66.5721 92.4944C64.3753 84.0867 60.6616 73.9143 54.571 67.8237L52.4497 69.945ZM14.2105 54.3421C14.0507 55.8336 14.0506 55.8336 14.0505 55.8335C14.0506 55.8336 14.0507 55.8336 14.0509 55.8336C14.0514 55.8336 14.0523 55.8337 14.0536 55.8339C14.0563 55.8342 14.0606 55.8346 14.0665 55.8353C14.0784 55.8366 14.0969 55.8387 14.1218 55.8415C14.1716 55.8471 14.2471 55.8558 14.3469 55.8677C14.5465 55.8915 14.8434 55.9283 15.2268 55.9793C15.9938 56.0813 17.1065 56.2402 18.4794 56.467C21.2271 56.921 25.008 57.6451 29.1419 58.7252C37.4913 60.9067 46.9688 64.4641 52.4497 69.945L54.571 67.8237C48.4804 61.7331 38.308 58.0194 29.9003 55.8226C25.6557 54.7136 21.7813 53.9719 18.9684 53.5071C17.561 53.2746 16.4169 53.1111 15.6223 53.0054C15.2249 52.9526 14.9148 52.9142 14.7026 52.8889C14.5965 52.8762 14.5148 52.8668 14.459 52.8605C14.4311 52.8573 14.4096 52.8549 14.3948 52.8533C14.3874 52.8525 14.3816 52.8519 14.3775 52.8514C14.3755 52.8512 14.3739 52.851 14.3727 52.8509C14.3721 52.8508 14.3715 52.8508 14.3712 52.8507C14.3707 52.8507 14.3703 52.8506 14.2105 54.3421ZM52.4497 38.7392C46.9688 44.2201 37.4913 47.7775 29.1419 49.959C25.008 51.0391 21.2271 51.7633 18.4794 52.2172C17.1065 52.444 15.9938 52.603 15.2268 52.7049C14.8434 52.7559 14.5465 52.7927 14.3469 52.8165C14.2471 52.8284 14.1716 52.8371 14.1218 52.8427C14.0969 52.8456 14.0784 52.8476 14.0665 52.8489C14.0606 52.8496 14.0563 52.85 14.0536 52.8503C14.0523 52.8505 14.0514 52.8506 14.0509 52.8506C14.0507 52.8506 14.0506 52.8507 14.0505 52.8507C14.0506 52.8507 14.0507 52.8506 14.2105 54.3421C14.3703 55.8336 14.3707 55.8335 14.3712 55.8335C14.3715 55.8334 14.3721 55.8334 14.3727 55.8333C14.3739 55.8332 14.3755 55.833 14.3775 55.8328C14.3816 55.8323 14.3874 55.8317 14.3948 55.8309C14.4096 55.8293 14.4311 55.8269 14.459 55.8237C14.5148 55.8174 14.5965 55.808 14.7026 55.7953C14.9148 55.77 15.2249 55.7316 15.6223 55.6788C16.4169 55.5731 17.561 55.4096 18.9684 55.1771C21.7813 54.7124 25.6557 53.9706 29.9003 52.8616C38.308 50.6648 48.4804 46.9511 54.571 40.8605L52.4497 38.7392ZM68.0526 0.5C66.5612 0.340208 66.5612 0.340045 66.5612 0.339987C66.5612 0.340109 66.5612 0.340156 66.5611 0.340398C66.5611 0.340882 66.561 0.341785 66.5608 0.343105C66.5606 0.345745 66.5601 0.350052 66.5594 0.356005C66.5581 0.367912 66.5561 0.386402 66.5533 0.41131C66.5476 0.461126 66.5389 0.536605 66.527 0.636409C66.5032 0.836027 66.4665 1.13289 66.4155 1.51632C66.3135 2.28329 66.1545 3.39594 65.9277 4.76887C65.4738 7.51657 64.7496 11.2975 63.6695 15.4314C61.488 23.7808 57.9306 33.2583 52.4497 38.7392L54.571 40.8605C60.6616 34.7699 64.3753 24.5975 66.5721 16.1898C67.6811 11.9452 68.4229 8.07082 68.8876 5.25785C69.1201 3.85044 69.2836 2.70641 69.3893 1.91179C69.4421 1.51442 69.4805 1.20426 69.5059 0.992046C69.5185 0.885937 69.5279 0.804301 69.5342 0.748482C69.5374 0.720572 69.5398 0.699115 69.5414 0.684278C69.5422 0.676859 69.5429 0.671096 69.5433 0.667008C69.5435 0.664964 69.5437 0.663339 69.5438 0.662135C69.5439 0.661534 69.544 0.660948 69.544 0.660647C69.5441 0.660167 69.5441 0.659792 68.0526 0.5ZM212.071 98.7708C203.697 90.3971 198.322 76.0071 195.046 63.4684C193.418 57.2399 192.328 51.5451 191.644 47.4073C191.303 45.3392 191.063 43.6624 190.909 42.5051C190.832 41.9264 190.777 41.4778 190.74 41.1752C190.722 41.024 190.709 40.9092 190.701 40.833C190.696 40.7949 190.693 40.7664 190.691 40.7478C190.69 40.7385 190.689 40.7317 190.689 40.7273C190.689 40.7252 190.688 40.7237 190.688 40.7227C190.688 40.7223 190.688 40.7221 190.688 40.7219C190.688 40.7218 190.688 40.7219 189.197 40.8817C187.705 41.0415 187.705 41.0419 187.705 41.0425C187.705 41.0429 187.706 41.0437 187.706 41.0445C187.706 41.0461 187.706 41.0484 187.706 41.0512C187.707 41.057 187.708 41.0653 187.709 41.0761C187.711 41.0976 187.715 41.129 187.72 41.1701C187.729 41.2524 187.743 41.3733 187.762 41.5309C187.799 41.846 187.856 42.308 187.935 42.9005C188.093 44.0856 188.337 45.7938 188.684 47.8962C189.379 52.0994 190.487 57.8876 192.143 64.2268C195.435 76.8238 200.966 91.9087 209.949 100.892L212.071 98.7708ZM269.96 121.645C270.12 120.153 270.12 120.153 270.12 120.153C270.12 120.153 270.119 120.153 270.119 120.153C270.118 120.153 270.116 120.153 270.114 120.153C270.11 120.152 270.103 120.152 270.094 120.151C270.075 120.149 270.047 120.145 270.009 120.141C269.932 120.132 269.818 120.119 269.666 120.101C269.364 120.065 268.915 120.01 268.337 119.933C267.179 119.779 265.502 119.539 263.434 119.197C259.296 118.514 253.602 117.423 247.373 115.796C234.835 112.52 220.445 107.145 212.071 98.7708L209.949 100.892C218.933 109.876 234.018 115.407 246.615 118.698C252.954 120.355 258.742 121.463 262.945 122.157C265.048 122.505 266.756 122.749 267.941 122.906C268.534 122.985 268.996 123.042 269.311 123.08C269.468 123.099 269.589 123.113 269.671 123.122C269.713 123.127 269.744 123.13 269.766 123.133C269.776 123.134 269.785 123.135 269.79 123.135C269.793 123.136 269.796 123.136 269.797 123.136C269.798 123.136 269.799 123.136 269.799 123.136C269.8 123.136 269.8 123.136 269.96 121.645ZM212.071 144.519C220.445 136.145 234.835 130.77 247.373 127.494C253.602 125.866 259.296 124.776 263.434 124.092C265.502 123.751 267.179 123.511 268.337 123.357C268.915 123.28 269.364 123.225 269.666 123.189C269.818 123.171 269.932 123.157 270.009 123.149C270.047 123.144 270.075 123.141 270.094 123.139C270.103 123.138 270.11 123.137 270.114 123.137C270.116 123.137 270.118 123.137 270.119 123.136C270.119 123.136 270.12 123.136 270.12 123.136C270.12 123.136 270.12 123.136 269.96 121.645C269.8 120.153 269.8 120.153 269.799 120.154C269.799 120.154 269.798 120.154 269.797 120.154C269.796 120.154 269.793 120.154 269.79 120.154C269.785 120.155 269.776 120.156 269.766 120.157C269.744 120.16 269.713 120.163 269.671 120.168C269.589 120.177 269.468 120.191 269.311 120.21C268.996 120.247 268.534 120.305 267.941 120.383C266.756 120.541 265.048 120.785 262.945 121.132C258.742 121.827 252.954 122.935 246.615 124.591C234.018 127.883 218.933 133.414 209.949 142.398L212.071 144.519ZM189.197 202.408C190.688 202.568 190.688 202.568 190.688 202.568C190.688 202.568 190.688 202.567 190.688 202.567C190.688 202.566 190.689 202.565 190.689 202.562C190.689 202.558 190.69 202.551 190.691 202.542C190.693 202.523 190.696 202.495 190.701 202.457C190.709 202.381 190.722 202.266 190.74 202.115C190.777 201.812 190.832 201.363 190.909 200.785C191.063 199.627 191.303 197.951 191.644 195.882C192.328 191.745 193.418 186.05 195.046 179.821C198.322 167.283 203.697 152.893 212.071 144.519L209.949 142.398C200.966 151.381 195.435 166.466 192.143 179.063C190.487 185.402 189.379 191.19 188.684 195.394C188.337 197.496 188.093 199.204 187.935 200.389C187.856 200.982 187.799 201.444 187.762 201.759C187.743 201.916 187.729 202.037 187.72 202.12C187.715 202.161 187.711 202.192 187.709 202.214C187.708 202.224 187.707 202.233 187.706 202.238C187.706 202.241 187.706 202.244 187.706 202.245C187.706 202.246 187.705 202.247 187.705 202.247C187.705 202.248 187.705 202.248 189.197 202.408ZM166.323 144.519C174.696 152.893 180.072 167.283 183.348 179.821C184.975 186.05 186.066 191.745 186.749 195.882C187.091 197.951 187.331 199.627 187.484 200.785C187.561 201.363 187.617 201.812 187.653 202.115C187.671 202.266 187.684 202.381 187.693 202.457C187.697 202.495 187.7 202.523 187.702 202.542C187.703 202.551 187.704 202.558 187.705 202.562C187.705 202.565 187.705 202.566 187.705 202.567C187.705 202.567 187.705 202.568 187.705 202.568C187.705 202.568 187.705 202.568 189.197 202.408C190.688 202.248 190.688 202.248 190.688 202.247C190.688 202.247 190.688 202.246 190.688 202.245C190.688 202.244 190.687 202.241 190.687 202.239C190.687 202.233 190.686 202.224 190.684 202.214C190.682 202.192 190.679 202.161 190.674 202.12C190.665 202.037 190.651 201.916 190.632 201.759C190.594 201.444 190.537 200.982 190.458 200.389C190.301 199.204 190.057 197.496 189.709 195.394C189.015 191.19 187.907 185.402 186.25 179.063C182.959 166.466 177.428 151.381 168.444 142.398L166.323 144.519ZM108.434 121.645C108.274 123.136 108.274 123.136 108.274 123.136C108.274 123.136 108.274 123.136 108.275 123.136C108.276 123.137 108.277 123.137 108.279 123.137C108.284 123.137 108.29 123.138 108.3 123.139C108.318 123.141 108.347 123.144 108.385 123.149C108.461 123.157 108.576 123.171 108.727 123.189C109.03 123.225 109.478 123.28 110.057 123.357C111.214 123.511 112.891 123.751 114.959 124.092C119.097 124.776 124.792 125.866 131.02 127.494C143.559 130.77 157.949 136.145 166.323 144.519L168.444 142.398C159.461 133.414 144.376 127.883 131.779 124.591C125.439 122.935 119.651 121.827 115.448 121.132C113.346 120.785 111.637 120.541 110.452 120.383C109.86 120.305 109.398 120.247 109.083 120.21C108.925 120.191 108.804 120.177 108.722 120.168C108.681 120.163 108.649 120.16 108.628 120.157C108.617 120.156 108.609 120.155 108.603 120.154C108.6 120.154 108.598 120.154 108.596 120.154C108.596 120.154 108.595 120.154 108.594 120.154C108.594 120.153 108.593 120.153 108.434 121.645ZM166.323 98.7708C157.949 107.145 143.559 112.52 131.02 115.796C124.792 117.423 119.097 118.514 114.959 119.197C112.891 119.539 111.214 119.779 110.057 119.933C109.478 120.01 109.03 120.065 108.727 120.101C108.576 120.119 108.461 120.132 108.385 120.141C108.347 120.145 108.318 120.149 108.3 120.151C108.29 120.152 108.284 120.152 108.279 120.153C108.277 120.153 108.276 120.153 108.275 120.153C108.274 120.153 108.274 120.153 108.274 120.153C108.274 120.153 108.274 120.153 108.434 121.645C108.593 123.136 108.594 123.136 108.594 123.136C108.595 123.136 108.596 123.136 108.596 123.136C108.598 123.136 108.6 123.136 108.603 123.135C108.609 123.135 108.617 123.134 108.628 123.133C108.649 123.13 108.681 123.127 108.722 123.122C108.804 123.113 108.925 123.099 109.083 123.08C109.398 123.042 109.86 122.985 110.452 122.906C111.637 122.749 113.346 122.505 115.448 122.157C119.651 121.463 125.439 120.355 131.779 118.698C144.376 115.407 159.461 109.876 168.444 100.892L166.323 98.7708ZM189.197 40.8817C187.705 40.7219 187.705 40.7218 187.705 40.7219C187.705 40.7221 187.705 40.7223 187.705 40.7227C187.705 40.7237 187.705 40.7252 187.705 40.7273C187.704 40.7317 187.703 40.7385 187.702 40.7478C187.7 40.7664 187.697 40.7949 187.693 40.833C187.684 40.9092 187.671 41.024 187.653 41.1752C187.617 41.4778 187.561 41.9264 187.484 42.5051C187.331 43.6624 187.091 45.3392 186.749 47.4073C186.066 51.5451 184.975 57.2399 183.348 63.4684C180.072 76.0071 174.696 90.3971 166.323 98.7708L168.444 100.892C177.428 91.9087 182.959 76.8238 186.25 64.2268C187.907 57.8876 189.015 52.0994 189.709 47.8962C190.057 45.7938 190.301 44.0856 190.458 42.9005C190.537 42.308 190.594 41.846 190.632 41.5309C190.651 41.3733 190.665 41.2524 190.674 41.1701C190.679 41.129 190.682 41.0976 190.684 41.0761C190.686 41.0653 190.687 41.057 190.687 41.0512C190.687 41.0484 190.688 41.0461 190.688 41.0445C190.688 41.0437 190.688 41.0429 190.688 41.0425C190.688 41.0419 190.688 41.0415 189.197 40.8817ZM68.0526 121.645C66.5612 121.805 66.5612 121.805 66.5613 121.806C66.5613 121.806 66.5614 121.807 66.5614 121.807C66.5616 121.809 66.5618 121.811 66.5621 121.813C66.5626 121.818 66.5634 121.825 66.5644 121.834C66.5664 121.852 66.5693 121.879 66.5732 121.913C66.581 121.982 66.5927 122.084 66.6084 122.215C66.6399 122.479 66.6877 122.865 66.7535 123.36C66.8852 124.35 67.089 125.776 67.3789 127.531C67.9585 131.039 68.8835 135.87 70.2661 141.162C73.0101 151.665 77.6327 164.293 85.1698 171.83L87.2911 169.709C80.3638 162.782 75.8975 150.848 73.1687 140.404C71.8149 135.223 70.9075 130.485 70.3388 127.042C70.0546 125.322 69.8553 123.927 69.7274 122.965C69.6634 122.484 69.6173 122.111 69.5873 121.86C69.5723 121.734 69.5613 121.639 69.5542 121.576C69.5507 121.545 69.548 121.521 69.5464 121.506C69.5455 121.498 69.5449 121.493 69.5445 121.489C69.5444 121.487 69.5442 121.486 69.5441 121.485C69.5441 121.485 69.5441 121.485 69.5441 121.485C69.5441 121.485 69.5441 121.485 68.0526 121.645ZM50.9355 171.83C58.4725 164.293 63.0951 151.665 65.8391 141.162C67.2218 135.87 68.1468 131.039 68.7263 127.531C69.0163 125.776 69.2201 124.35 69.3517 123.36C69.4175 122.865 69.4653 122.479 69.4968 122.215C69.5126 122.084 69.5242 121.982 69.532 121.913C69.5359 121.879 69.5389 121.852 69.5409 121.834C69.5419 121.825 69.5426 121.818 69.5432 121.813C69.5434 121.811 69.5437 121.809 69.5438 121.807C69.5439 121.807 69.544 121.806 69.544 121.806C69.544 121.805 69.5441 121.805 68.0526 121.645C66.5612 121.485 66.5612 121.485 66.5612 121.485C66.5612 121.485 66.5611 121.485 66.5611 121.485C66.561 121.486 66.5609 121.487 66.5607 121.489C66.5603 121.493 66.5597 121.498 66.5589 121.506C66.5572 121.521 66.5546 121.545 66.551 121.576C66.5439 121.639 66.533 121.734 66.518 121.86C66.488 122.111 66.4419 122.484 66.3779 122.965C66.25 123.927 66.0507 125.322 65.7665 127.042C65.1977 130.485 64.2903 135.223 62.9366 140.404C60.2078 150.848 55.7415 162.782 48.8141 169.709L50.9355 171.83ZM0.75 188.947C0.909792 190.439 0.910193 190.439 0.910726 190.439C0.911079 190.439 0.911745 190.439 0.912452 190.439C0.913866 190.438 0.915807 190.438 0.918272 190.438C0.9232 190.437 0.930223 190.437 0.939313 190.436C0.957493 190.434 0.983944 190.431 1.01846 190.427C1.08748 190.419 1.18875 190.407 1.3206 190.392C1.58429 190.36 1.97033 190.312 2.4653 190.247C3.45513 190.115 4.88124 189.911 6.63619 189.621C10.1442 189.042 14.9755 188.117 20.2675 186.734C30.7698 183.99 43.3984 179.367 50.9355 171.83L48.8141 169.709C41.8868 176.636 29.9531 181.103 19.5091 183.831C14.3278 185.185 9.58999 186.092 6.14721 186.661C4.42673 186.945 3.032 187.145 2.06983 187.273C1.58881 187.337 1.21606 187.383 0.964966 187.413C0.839422 187.428 0.744305 187.439 0.681284 187.446C0.649774 187.449 0.62629 187.452 0.611041 187.454C0.603416 187.455 0.59785 187.455 0.594369 187.455C0.592629 187.456 0.59141 187.456 0.590715 187.456C0.590367 187.456 0.590241 187.456 0.590067 187.456C0.590071 187.456 0.590208 187.456 0.75 188.947ZM50.9355 206.065C43.3984 198.528 30.7698 193.905 20.2675 191.161C14.9755 189.778 10.1442 188.853 6.63619 188.274C4.88124 187.984 3.45513 187.78 2.4653 187.648C1.97033 187.582 1.58429 187.535 1.3206 187.503C1.18875 187.487 1.08748 187.476 1.01846 187.468C0.983944 187.464 0.957493 187.461 0.939313 187.459C0.930223 187.458 0.9232 187.457 0.918272 187.457C0.915807 187.457 0.913866 187.456 0.912452 187.456C0.911745 187.456 0.911079 187.456 0.910726 187.456C0.910193 187.456 0.909792 187.456 0.75 188.947C0.590208 190.439 0.590071 190.439 0.590067 190.439C0.590241 190.439 0.590367 190.439 0.590715 190.439C0.59141 190.439 0.592629 190.439 0.594369 190.439C0.59785 190.44 0.603416 190.44 0.611041 190.441C0.62629 190.443 0.649774 190.445 0.681284 190.449C0.744305 190.456 0.839422 190.467 0.964966 190.482C1.21606 190.512 1.58881 190.558 2.06983 190.622C3.032 190.75 4.42673 190.949 6.14721 191.234C9.58999 191.802 14.3278 192.71 19.5091 194.063C29.9531 196.792 41.8868 201.259 48.8141 208.186L50.9355 206.065ZM68.0526 256.25C69.5441 256.09 69.544 256.09 69.544 256.089C69.544 256.089 69.5439 256.088 69.5438 256.088C69.5437 256.086 69.5434 256.084 69.5432 256.082C69.5426 256.077 69.5419 256.07 69.5409 256.061C69.5389 256.043 69.5359 256.016 69.532 255.982C69.5242 255.913 69.5126 255.811 69.4968 255.679C69.4653 255.416 69.4175 255.03 69.3517 254.535C69.2201 253.545 69.0163 252.119 68.7263 250.364C68.1468 246.856 67.2218 242.024 65.8391 236.733C63.0951 226.23 58.4725 213.602 50.9355 206.065L48.8141 208.186C55.7415 215.113 60.2078 227.047 62.9366 237.491C64.2903 242.672 65.1977 247.41 65.7665 250.853C66.0507 252.573 66.25 253.968 66.3779 254.93C66.4419 255.411 66.488 255.784 66.518 256.035C66.533 256.161 66.5439 256.256 66.551 256.319C66.5546 256.35 66.5572 256.374 66.5589 256.389C66.5597 256.397 66.5603 256.402 66.5607 256.406C66.5609 256.407 66.561 256.409 66.5611 256.409C66.5611 256.41 66.5612 256.41 66.5612 256.41C66.5612 256.41 66.5612 256.41 68.0526 256.25ZM85.1698 206.065C77.6327 213.602 73.0101 226.23 70.2661 236.733C68.8835 242.024 67.9585 246.856 67.3789 250.364C67.089 252.119 66.8852 253.545 66.7535 254.535C66.6877 255.03 66.6399 255.416 66.6084 255.679C66.5927 255.811 66.581 255.913 66.5732 255.982C66.5693 256.016 66.5664 256.043 66.5644 256.061C66.5634 256.07 66.5626 256.077 66.5621 256.082C66.5618 256.084 66.5616 256.086 66.5614 256.088C66.5614 256.088 66.5613 256.089 66.5613 256.089C66.5612 256.09 66.5612 256.09 68.0526 256.25C69.5441 256.41 69.5441 256.41 69.5441 256.41C69.5441 256.41 69.5441 256.41 69.5441 256.409C69.5442 256.409 69.5444 256.407 69.5445 256.406C69.5449 256.402 69.5455 256.397 69.5464 256.389C69.548 256.374 69.5507 256.35 69.5542 256.319C69.5613 256.256 69.5723 256.161 69.5873 256.035C69.6173 255.784 69.6634 255.411 69.7274 254.93C69.8553 253.968 70.0546 252.573 70.3388 250.853C70.9076 247.41 71.8149 242.672 73.1687 237.491C75.8975 227.047 80.3638 215.113 87.2911 208.186L85.1698 206.065ZM135.355 188.947C135.195 187.456 135.195 187.456 135.195 187.456C135.194 187.456 135.194 187.456 135.193 187.456C135.191 187.456 135.189 187.457 135.187 187.457C135.182 187.457 135.175 187.458 135.166 187.459C135.148 187.461 135.121 187.464 135.087 187.468C135.018 187.476 134.917 187.487 134.785 187.503C134.521 187.535 134.135 187.582 133.64 187.648C132.65 187.78 131.224 187.984 129.469 188.274C125.961 188.853 121.13 189.778 115.838 191.161C105.335 193.905 92.7068 198.528 85.1698 206.065L87.2911 208.186C94.2184 201.259 106.152 196.792 116.596 194.063C121.777 192.71 126.515 191.802 129.958 191.234C131.679 190.949 133.073 190.75 134.035 190.622C134.516 190.558 134.889 190.512 135.14 190.482C135.266 190.467 135.361 190.456 135.424 190.449C135.455 190.445 135.479 190.443 135.494 190.441C135.502 190.44 135.507 190.44 135.511 190.439C135.513 190.439 135.514 190.439 135.515 190.439C135.515 190.439 135.515 190.439 135.515 190.439C135.515 190.439 135.515 190.439 135.355 188.947ZM85.1698 171.83C92.7068 179.367 105.335 183.99 115.838 186.734C121.13 188.117 125.961 189.042 129.469 189.621C131.224 189.911 132.65 190.115 133.64 190.247C134.135 190.312 134.521 190.36 134.785 190.392C134.917 190.407 135.018 190.419 135.087 190.427C135.121 190.431 135.148 190.434 135.166 190.436C135.175 190.437 135.182 190.437 135.187 190.438C135.189 190.438 135.191 190.438 135.193 190.439C135.194 190.439 135.194 190.439 135.195 190.439C135.195 190.439 135.195 190.439 135.355 188.947C135.515 187.456 135.515 187.456 135.515 187.456C135.515 187.456 135.515 187.456 135.515 187.456C135.514 187.456 135.513 187.456 135.511 187.455C135.507 187.455 135.502 187.455 135.494 187.454C135.479 187.452 135.455 187.449 135.424 187.446C135.361 187.439 135.266 187.428 135.14 187.413C134.889 187.383 134.516 187.337 134.035 187.273C133.073 187.145 131.679 186.945 129.958 186.661C126.515 186.092 121.777 185.185 116.596 183.831C106.152 181.103 94.2184 176.636 87.2911 169.709L85.1698 171.83Z" fill="url(#paint0_linear_7_134)" mask="url(#path-1-inside-1_7_134)" />
  </g>
  <defs>
    <linearGradient id="paint0_linear_7_134" x1="0.75" y1="0.5" x2="256.164" y2="269.356" gradientUnits="userSpaceOnUse">
      <stop stop-color="white" />
      <stop offset="1" stop-color="white" stop-opacity="0" />
    </linearGradient>
  </defs>
</svg>