<svg width="13" height="13" viewBox="0 0 13 13" fill="none" xmlns="http://www.w3.org/2000/svg">
  <path d="M8.06249 8.75625C8.11249 8.8125 8.11249 8.93125 8.06249 9C7.60624 9.4375 6.75624 9.475 6.49999 9.475C6.25624 9.475 5.40624 9.4375 4.96249 9C4.89999 8.93125 4.89999 8.8125 4.96249 8.75625C5.03124 8.69375 5.13749 8.69375 5.19999 8.75625C5.48749 9.04375 6.08124 9.125 6.49999 9.125C6.93124 9.125 7.53749 9.04375 7.81249 8.75625C7.88124 8.69375 7.98749 8.69375 8.06249 8.75625ZM5.71874 7.275C5.71874 6.91875 5.42499 6.625 5.06874 6.625C4.71249 6.625 4.41874 6.91875 4.41874 7.275C4.41874 7.63125 4.71249 7.93125 5.06874 7.925C5.42499 7.925 5.71874 7.63125 5.71874 7.275ZM7.93124 6.625C7.57499 6.625 7.28124 6.9375 7.28124 7.28125C7.28124 7.625 7.57499 7.93125 7.93124 7.93125C8.28749 7.93125 8.58124 7.63125 8.58124 7.28125C8.58124 6.9375 8.28749 6.625 7.93124 6.625ZM12.75 6.625C12.75 10.0625 9.93749 12.875 6.49999 12.875C3.06249 12.875 0.249992 10.0625 0.249992 6.625C0.249992 3.1875 3.06249 0.375 6.49999 0.375C9.93749 0.375 12.75 3.1875 12.75 6.625ZM10.6687 6.625C10.6687 6.11875 10.25 5.7125 9.76249 5.7125C9.51249 5.7125 9.28749 5.8125 9.12499 5.96875C8.49999 5.51875 7.64374 5.23125 6.68749 5.19375L7.10624 3.2375L8.46249 3.53125C8.47499 3.875 8.76249 4.15 9.11249 4.15C9.46874 4.15 9.76249 3.85625 9.76249 3.5C9.76249 3.14375 9.46874 2.85 9.11249 2.85C8.85624 2.85 8.63124 3 8.53124 3.21875L7.01249 2.89375C6.96874 2.875 6.92499 2.89375 6.89374 2.91875C6.85624 2.94375 6.83749 2.98125 6.83124 3.025L6.36874 5.2C5.39999 5.23125 4.52499 5.51875 3.88749 5.975C3.72499 5.81875 3.49999 5.725 3.25624 5.725C2.74999 5.725 2.34374 6.13125 2.34374 6.625C2.34374 7.00625 2.56874 7.31875 2.88124 7.4625C2.86874 7.5625 2.86249 7.6375 2.86249 7.7375C2.86249 9.125 4.49374 10.2812 6.49999 10.2812C8.51874 10.2812 10.1562 9.14375 10.1562 7.7375C10.1562 7.65 10.15 7.5625 10.1312 7.4625C10.4437 7.31875 10.6687 7 10.6687 6.625Z" fill="white" />
</svg>