<svg width="15" height="12" viewBox="0 0 15 12" fill="none" xmlns="http://www.w3.org/2000/svg">
  <path d="M14.0375 2.125C13.5562 2.34375 13.0375 2.4875 12.5 2.55625C13.05 2.225 13.475 1.7 13.675 1.06875C13.1562 1.38125 12.5812 1.6 11.975 1.725C11.4812 1.1875 10.7875 0.875 9.99999 0.875C8.53124 0.875 7.33124 2.075 7.33124 3.55625C7.33124 3.76875 7.35624 3.975 7.39999 4.16875C5.17499 4.05625 3.19374 2.9875 1.87499 1.36875C1.64374 1.7625 1.51249 2.225 1.51249 2.7125C1.51249 3.64375 1.98124 4.46875 2.70624 4.9375C2.26249 4.9375 1.84999 4.8125 1.48749 4.625V4.64375C1.48749 5.94375 2.41249 7.03125 3.63749 7.275C3.2442 7.38263 2.8313 7.39761 2.43124 7.31875C2.601 7.85155 2.93345 8.31775 3.38188 8.65183C3.8303 8.98591 4.37215 9.17106 4.93124 9.18125C3.98351 9.93152 2.80874 10.3371 1.59999 10.3312C1.38749 10.3312 1.17499 10.3187 0.962494 10.2937C2.14999 11.0562 3.56249 11.5 5.07499 11.5C9.99999 11.5 12.7062 7.4125 12.7062 3.86875C12.7062 3.75 12.7062 3.6375 12.7 3.51875C13.225 3.14375 13.675 2.66875 14.0375 2.125Z" fill="white" />
</svg>